<?xml version="1.0" encoding="UTF-8"?>
<!DOCTYPE svg PUBLIC "-//W3C//DTD SVG 1.1//EN" "http://www.w3.org/Graphics/SVG/1.1/DTD/svg11.dtd">
<svg xmlns="http://www.w3.org/2000/svg" version="1.1" width="397px" height="397px" style="shape-rendering:geometricPrecision; text-rendering:geometricPrecision; image-rendering:optimizeQuality; fill-rule:evenodd; clip-rule:evenodd" xmlns:xlink="http://www.w3.org/1999/xlink">
<g><path style="opacity:1" fill="#fefefe" d="M -0.5,-0.5 C 131.833,-0.5 264.167,-0.5 396.5,-0.5C 396.5,131.833 396.5,264.167 396.5,396.5C 264.167,396.5 131.833,396.5 -0.5,396.5C -0.5,264.167 -0.5,131.833 -0.5,-0.5 Z"/></g>
<g><path style="opacity:1" fill="#d274ad" d="M 197.5,0.5 C 263.479,65.8123 329.146,131.479 394.5,197.5C 329.18,263.32 263.68,328.986 198,394.5C 131.861,329.361 66.0274,263.861 0.5,198C 66.368,132.299 132.035,66.4654 197.5,0.5 Z"/></g>
<g><path style="opacity:1" fill="#fefcfd" d="M 197.5,15.5 C 258.479,75.8123 319.146,136.479 379.5,197.5C 319.18,258.32 258.68,318.986 198,379.5C 137.184,319.686 76.3511,259.186 15.5,198C 76.368,137.299 137.035,76.4654 197.5,15.5 Z"/></g>
<g><path style="opacity:1" fill="#d273ac" d="M 206.5,42.5 C 209.167,47.1667 212.833,50.8333 217.5,53.5C 219.833,55.1667 221.833,57.1667 223.5,59.5C 226.5,64.5 230.5,68.5 235.5,71.5C 238.167,73.5 240.5,75.8333 242.5,78.5C 245.167,83.1667 248.833,86.8333 253.5,89.5C 254.5,89.8333 255.167,90.5 255.5,91.5C 259.833,97.8333 265.167,103.167 271.5,107.5C 273.273,108.314 273.773,109.648 273,111.5C 248.392,136.108 223.892,160.608 199.5,185C 203,188.5 206.5,192 210,195.5C 234.986,171.681 259.486,147.348 283.5,122.5C 284.365,121.417 285.365,121.251 286.5,122C 289.371,124.703 292.038,127.536 294.5,130.5C 296.833,134.833 300.167,138.167 304.5,140.5C 307.5,142.833 310.167,145.5 312.5,148.5C 314.5,152.5 317.5,155.5 321.5,157.5C 324.833,160.167 327.833,163.167 330.5,166.5C 332.5,170.5 335.5,173.5 339.5,175.5C 342.5,177.833 345.167,180.5 347.5,183.5C 349.833,187.833 353.167,191.167 357.5,193.5C 360.221,194.696 361.387,196.696 361,199.5C 335.986,224.681 310.82,249.681 285.5,274.5C 260.68,250.181 236.014,225.681 211.5,201C 210.5,200.333 209.5,200.333 208.5,201C 205.117,204.047 202.117,207.38 199.5,211C 201.351,212.683 203.017,214.516 204.5,216.5C 208.167,222.167 212.833,226.833 218.5,230.5C 220.833,232.167 222.833,234.167 224.5,236.5C 227.167,241.167 230.833,244.833 235.5,247.5C 238.5,249.833 241.167,252.5 243.5,255.5C 245.167,259.167 247.833,261.833 251.5,263.5C 255.167,266.5 258.5,269.833 261.5,273.5C 263.5,277.5 266.5,280.5 270.5,282.5C 272.914,283.406 273.747,285.072 273,287.5C 248.132,311.605 223.299,336.105 198.5,361C 197.5,361.667 196.5,361.667 195.5,361C 170.261,336.262 145.594,311.096 121.5,285.5C 121.667,284.833 121.833,284.167 122,283.5C 146.261,259.856 170.261,236.189 194,212.5C 194.667,211.5 194.667,210.5 194,209.5C 191.167,206.667 188.333,203.833 185.5,201C 184.092,200.685 182.759,201.018 181.5,202C 157.788,226.044 133.621,249.877 109,273.5C 83.1852,248.685 57.6852,223.519 32.5,198C 57.1572,172.177 82.1572,147.011 107.5,122.5C 132.582,146.081 157.249,170.247 181.5,195C 182.094,195.464 182.761,195.631 183.5,195.5C 187.402,193.107 190.902,190.107 194,186.5C 194.667,185.5 194.667,184.5 194,183.5C 184.298,173.965 174.798,164.298 165.5,154.5C 161.833,150.167 157.833,146.167 153.5,142.5C 149.167,138.833 145.167,134.833 141.5,130.5C 134.442,123.446 127.775,116.112 121.5,108.5C 146.137,84.3644 170.804,59.8644 195.5,35C 196.833,34.3333 198.167,34.3333 199.5,35C 202.039,37.3697 204.372,39.8697 206.5,42.5 Z"/></g>
<g><path style="opacity:1" fill="#e3a9cc" d="M 206.5,42.5 C 210.5,45.8333 214.167,49.5 217.5,53.5C 212.833,50.8333 209.167,47.1667 206.5,42.5 Z"/></g>
<g><path style="opacity:1" fill="#fefefe" d="M 196.5,48.5 C 199.603,50.4233 202.603,52.59 205.5,55C 212.393,63.0581 219.726,70.5581 227.5,77.5C 229.833,80.5 232.5,83.1667 235.5,85.5C 238.5,89.1667 241.833,92.5 245.5,95.5C 247.833,98.5 250.5,101.167 253.5,103.5C 254.5,105.167 255.833,106.5 257.5,107.5C 258.028,108.847 258.195,110.181 258,111.5C 238.167,131.333 218.333,151.167 198.5,171C 197.552,171.483 196.552,171.649 195.5,171.5C 192.5,167.833 189.167,164.5 185.5,161.5C 183.833,157.833 181.167,155.167 177.5,153.5C 168.446,143.779 159.113,134.446 149.5,125.5C 148.5,122.5 146.5,120.5 143.5,119.5C 140.46,116.461 137.794,113.127 135.5,109.5C 156.113,89.5541 176.446,69.2208 196.5,48.5 Z"/></g>
<g><path style="opacity:1" fill="#e2a8cb" d="M 223.5,59.5 C 227.833,63.1667 231.833,67.1667 235.5,71.5C 230.5,68.5 226.5,64.5 223.5,59.5 Z"/></g>
<g><path style="opacity:1" fill="#f3dae9" d="M 196.5,48.5 C 176.446,69.2208 156.113,89.5541 135.5,109.5C 154.525,88.9715 174.192,68.8048 194.5,49C 195.094,48.5357 195.761,48.369 196.5,48.5 Z"/></g>
<g><path style="opacity:1" fill="#e0a0c7" d="M 227.5,77.5 C 231.167,79.1667 233.833,81.8333 235.5,85.5C 232.5,83.1667 229.833,80.5 227.5,77.5 Z"/></g>
<g><path style="opacity:1" fill="#e2a6ca" d="M 242.5,78.5 C 246.5,81.8333 250.167,85.5 253.5,89.5C 248.833,86.8333 245.167,83.1667 242.5,78.5 Z"/></g>
<g><path style="opacity:1" fill="#e2a5ca" d="M 255.5,91.5 C 261.167,96.5 266.5,101.833 271.5,107.5C 265.167,103.167 259.833,97.8333 255.5,91.5 Z"/></g>
<g><path style="opacity:1" fill="#e1a1c7" d="M 245.5,95.5 C 249.167,97.1667 251.833,99.8333 253.5,103.5C 250.5,101.167 247.833,98.5 245.5,95.5 Z"/></g>
<g><path style="opacity:1" fill="#ecc4dc" d="M 121.5,108.5 C 127.775,116.112 134.442,123.446 141.5,130.5C 134.256,124.762 127.423,118.428 121,111.5C 120.26,110.251 120.427,109.251 121.5,108.5 Z"/></g>
<g><path style="opacity:1" fill="#edc7de" d="M 143.5,119.5 C 146.5,120.5 148.5,122.5 149.5,125.5C 147.167,123.833 145.167,121.833 143.5,119.5 Z"/></g>
<g><path style="opacity:1" fill="#e8b9d5" d="M 107.5,122.5 C 108.251,121.427 109.251,121.26 110.5,122C 135.035,146.368 159.368,170.868 183.5,195.5C 182.761,195.631 182.094,195.464 181.5,195C 157.249,170.247 132.582,146.081 107.5,122.5 Z"/></g>
<g><path style="opacity:1" fill="#e1a3c8" d="M 294.5,130.5 C 298.167,133.5 301.5,136.833 304.5,140.5C 300.167,138.167 296.833,134.833 294.5,130.5 Z"/></g>
<g><path style="opacity:1" fill="#fefefe" d="M 170.5,196.5 C 170.649,197.552 170.483,198.552 170,199.5C 150.167,219.333 130.333,239.167 110.5,259C 109.552,259.483 108.552,259.649 107.5,259.5C 87.3274,239.161 67.3274,218.661 47.5,198C 57.9586,185.374 69.2919,173.54 81.5,162.5C 85.1667,160.833 87.8333,158.167 89.5,154.5C 93.5,152.5 96.5,149.5 98.5,145.5C 102.167,143.833 104.833,141.167 106.5,137.5C 107.738,136.588 109.072,136.421 110.5,137C 130.368,157.035 150.368,176.868 170.5,196.5 Z"/></g>
<g><path style="opacity:1" fill="#f2d9e8" d="M 106.5,137.5 C 104.833,141.167 102.167,143.833 98.5,145.5C 100.833,142.5 103.5,139.833 106.5,137.5 Z"/></g>
<g><path style="opacity:1" fill="#ecc6dd" d="M 153.5,142.5 C 157.833,146.167 161.833,150.167 165.5,154.5C 160.5,151.5 156.5,147.5 153.5,142.5 Z"/></g>
<g><path style="opacity:1" fill="#e5adcf" d="M 257.5,107.5 C 259.377,108.659 259.877,110.326 259,112.5C 239.167,132.333 219.333,152.167 199.5,172C 197.934,172.765 196.601,172.598 195.5,171.5C 196.552,171.649 197.552,171.483 198.5,171C 218.333,151.167 238.167,131.333 258,111.5C 258.195,110.181 258.028,108.847 257.5,107.5 Z"/></g>
<g><path style="opacity:1" fill="#e1a2c8" d="M 312.5,148.5 C 315.833,151.167 318.833,154.167 321.5,157.5C 317.5,155.5 314.5,152.5 312.5,148.5 Z"/></g>
<g><path style="opacity:1" fill="#f2d9e9" d="M 98.5,145.5 C 96.5,149.5 93.5,152.5 89.5,154.5C 92.1667,151.167 95.1667,148.167 98.5,145.5 Z"/></g>
<g><path style="opacity:1" fill="#ecc5dd" d="M 177.5,153.5 C 181.167,155.167 183.833,157.833 185.5,161.5C 182.5,159.167 179.833,156.5 177.5,153.5 Z"/></g>
<g><path style="opacity:1" fill="#f2d9e9" d="M 89.5,154.5 C 87.8333,158.167 85.1667,160.833 81.5,162.5C 83.8333,159.5 86.5,156.833 89.5,154.5 Z"/></g>
<g><path style="opacity:1" fill="#e0a1c7" d="M 330.5,166.5 C 333.833,169.167 336.833,172.167 339.5,175.5C 335.5,173.5 332.5,170.5 330.5,166.5 Z"/></g>
<g><path style="opacity:1" fill="#e0a0c7" d="M 347.5,183.5 C 351.167,186.5 354.5,189.833 357.5,193.5C 353.167,191.167 349.833,187.833 347.5,183.5 Z"/></g>
<g><path style="opacity:1" fill="#e1a4c9" d="M 204.5,216.5 C 209.5,220.833 214.167,225.5 218.5,230.5C 212.833,226.833 208.167,222.167 204.5,216.5 Z"/></g>
<g><path style="opacity:1" fill="#df9cc5" d="M 170.5,196.5 C 171.598,197.601 171.765,198.934 171,200.5C 151.167,220.333 131.333,240.167 111.5,260C 109.934,260.765 108.601,260.598 107.5,259.5C 108.552,259.649 109.552,259.483 110.5,259C 130.333,239.167 150.167,219.333 170,199.5C 170.483,198.552 170.649,197.552 170.5,196.5 Z"/></g>
<g><path style="opacity:1" fill="#fefefe" d="M 258.5,284.5 C 258.649,285.552 258.483,286.552 258,287.5C 238.167,307.333 218.333,327.167 198.5,347C 197.552,347.483 196.552,347.649 195.5,347.5C 175.868,327.368 156.035,307.368 136,287.5C 135.333,286.167 135.333,284.833 136,283.5C 140.702,278.63 145.535,273.963 150.5,269.5C 154.5,267.5 157.5,264.5 159.5,260.5C 162.167,257.167 165.167,254.167 168.5,251.5C 172.5,249.5 175.5,246.5 177.5,242.5C 184.167,237.833 189.833,232.167 194.5,225.5C 195.738,224.588 197.072,224.421 198.5,225C 218.368,245.035 238.368,264.868 258.5,284.5 Z"/></g>
<g><path style="opacity:1" fill="#f3dcea" d="M 194.5,225.5 C 189.833,232.167 184.167,237.833 177.5,242.5C 182.833,236.5 188.5,230.833 194.5,225.5 Z"/></g>
<g><path style="opacity:1" fill="#e1a3c9" d="M 224.5,236.5 C 228.5,239.833 232.167,243.5 235.5,247.5C 230.833,244.833 227.167,241.167 224.5,236.5 Z"/></g>
<g><path style="opacity:1" fill="#f3dbea" d="M 177.5,242.5 C 175.5,246.5 172.5,249.5 168.5,251.5C 171.167,248.167 174.167,245.167 177.5,242.5 Z"/></g>
<g><path style="opacity:1" fill="#e1a2c8" d="M 243.5,255.5 C 246.5,257.833 249.167,260.5 251.5,263.5C 247.833,261.833 245.167,259.167 243.5,255.5 Z"/></g>
<g><path style="opacity:1" fill="#f3dcea" d="M 159.5,260.5 C 157.5,264.5 154.5,267.5 150.5,269.5C 153.167,266.167 156.167,263.167 159.5,260.5 Z"/></g>
<g><path style="opacity:1" fill="#e0a1c7" d="M 261.5,273.5 C 264.833,276.167 267.833,279.167 270.5,282.5C 266.5,280.5 263.5,277.5 261.5,273.5 Z"/></g>
<g><path style="opacity:1" fill="#e2a4c9" d="M 258.5,284.5 C 259.598,285.601 259.765,286.934 259,288.5C 239.167,308.333 219.333,328.167 199.5,348C 197.934,348.765 196.601,348.598 195.5,347.5C 196.552,347.649 197.552,347.483 198.5,347C 218.333,327.167 238.167,307.333 258,287.5C 258.483,286.552 258.649,285.552 258.5,284.5 Z"/></g>
</svg>
